<svg xmlns="http://www.w3.org/2000/svg" viewBox="0 0 600 450" role="img" aria-label="Data analytics dashboard">
  <defs>
    <linearGradient id="g6" x1="0" y1="0" x2="1" y2="1">
      <stop offset="0%" stop-color="#0c4a6e"/>
      <stop offset="100%" stop-color="#0ea5e9"/>
    </linearGradient>
  </defs>
  <rect width="600" height="450" fill="url(#g6)"/>
  <g transform="translate(60 80)">
    <rect width="480" height="290" rx="14" fill="#f8fafc"/>
    <rect x="20" y="20" width="140" height="80" rx="8" fill="#e0f2fe"/>
    <text x="32" y="44" font-family="Inter, sans-serif" font-size="11" fill="#0c4a6e">REVENUE (AED)</text>
    <text x="32" y="80" font-family="Inter, sans-serif" font-size="26" font-weight="800" fill="#0c4a6e">1.24M</text>
    <rect x="170" y="20" width="140" height="80" rx="8" fill="#dcfce7"/>
    <text x="182" y="44" font-family="Inter, sans-serif" font-size="11" fill="#166534">CONVERSION</text>
    <text x="182" y="80" font-family="Inter, sans-serif" font-size="26" font-weight="800" fill="#166534">+18%</text>
    <rect x="320" y="20" width="140" height="80" rx="8" fill="#fef3c7"/>
    <text x="332" y="44" font-family="Inter, sans-serif" font-size="11" fill="#854d0e">RETENTION</text>
    <text x="332" y="80" font-family="Inter, sans-serif" font-size="26" font-weight="800" fill="#854d0e">92%</text>
    <g transform="translate(20 130)">
      <rect width="440" height="140" rx="8" fill="#ffffff" stroke="#e2e8f0"/>
      <g fill="#0ea5e9">
        <rect x="20" y="80" width="30" height="40"/>
        <rect x="60" y="60" width="30" height="60"/>
        <rect x="100" y="40" width="30" height="80"/>
        <rect x="140" y="50" width="30" height="70"/>
        <rect x="180" y="20" width="30" height="100"/>
        <rect x="220" y="35" width="30" height="85"/>
        <rect x="260" y="15" width="30" height="105"/>
        <rect x="300" y="30" width="30" height="90"/>
        <rect x="340" y="10" width="30" height="110"/>
        <rect x="380" y="25" width="30" height="95"/>
      </g>
    </g>
  </g>
  <text x="300" y="420" text-anchor="middle" font-family="Inter, sans-serif" font-size="18" font-weight="700" fill="#ffffff" letter-spacing="2">DATA &amp; ANALYTICS</text>
</svg>
