<svg xmlns="http://www.w3.org/2000/svg" viewBox="0 0 600 450" role="img" aria-label="Bilingual writing & translation">
  <defs>
    <linearGradient id="g3" x1="0" y1="0" x2="1" y2="1">
      <stop offset="0%" stop-color="#7c2d12"/>
      <stop offset="100%" stop-color="#c2410c"/>
    </linearGradient>
  </defs>
  <rect width="600" height="450" fill="url(#g3)"/>
  <g transform="translate(70 70)">
    <rect width="220" height="310" rx="12" fill="#fff7ed"/>
    <rect x="20" y="24" width="180" height="10" rx="3" fill="#7c2d12"/>
    <rect x="20" y="44" width="140" height="6" rx="2" fill="#c2410c" opacity="0.6"/>
    <rect x="20" y="60" width="180" height="6" rx="2" fill="#c2410c" opacity="0.6"/>
    <rect x="20" y="76" width="160" height="6" rx="2" fill="#c2410c" opacity="0.6"/>
    <rect x="20" y="100" width="180" height="6" rx="2" fill="#c2410c" opacity="0.6"/>
    <rect x="20" y="116" width="120" height="6" rx="2" fill="#c2410c" opacity="0.6"/>
    <text x="20" y="200" font-family="Inter, sans-serif" font-size="40" font-weight="900" fill="#7c2d12">EN</text>
  </g>
  <g transform="translate(310 70)">
    <rect width="220" height="310" rx="12" fill="#fff7ed"/>
    <rect x="20" y="24" width="180" height="10" rx="3" fill="#7c2d12"/>
    <g font-family="Cairo, sans-serif" font-size="14" fill="#7c2d12" text-anchor="end">
      <text x="200" y="58">العربية أولاً — محتوى احترافي</text>
      <text x="200" y="78" opacity="0.75">يصل لجمهورك بثقة وأناقة</text>
      <text x="200" y="98" opacity="0.75">عبر الإمارات ودول الخليج</text>
    </g>
    <text x="200" y="220" text-anchor="end" font-family="Cairo, sans-serif" font-size="46" font-weight="900" fill="#7c2d12">عربي</text>
  </g>
  <text x="300" y="425" text-anchor="middle" font-family="Inter, sans-serif" font-size="18" font-weight="700" fill="#ffffff" letter-spacing="2">BILINGUAL CONTENT</text>
</svg>
