<svg xmlns="http://www.w3.org/2000/svg" viewBox="0 0 600 450" role="img" aria-label="Performance marketing">
  <defs>
    <linearGradient id="g4" x1="0" y1="0" x2="1" y2="1">
      <stop offset="0%" stop-color="#581c87"/>
      <stop offset="100%" stop-color="#a855f7"/>
    </linearGradient>
  </defs>
  <rect width="600" height="450" fill="url(#g4)"/>
  <g transform="translate(70 90)">
    <rect width="460" height="270" rx="14" fill="#ffffff"/>
    <text x="20" y="34" font-family="Inter, sans-serif" font-size="14" font-weight="700" fill="#581c87">CAMPAIGN PERFORMANCE</text>
    <g stroke="#e5e7eb" stroke-width="1">
      <line x1="20" y1="220" x2="440" y2="220"/>
      <line x1="20" y1="170" x2="440" y2="170"/>
      <line x1="20" y1="120" x2="440" y2="120"/>
      <line x1="20" y1="70" x2="440" y2="70"/>
    </g>
    <polyline fill="none" stroke="#a855f7" stroke-width="3" points="20,200 80,180 140,150 200,165 260,110 320,100 380,75 440,55"/>
    <g fill="#a855f7">
      <circle cx="80" cy="180" r="4"/>
      <circle cx="200" cy="165" r="4"/>
      <circle cx="320" cy="100" r="4"/>
      <circle cx="440" cy="55" r="5"/>
    </g>
    <g transform="translate(20 240)" font-family="Inter, sans-serif" font-size="11" fill="#6b7280">
      <text>UAE</text><text x="80">KSA</text><text x="160">QAT</text><text x="240">KWT</text><text x="320">BHR</text><text x="400">OMN</text>
    </g>
  </g>
  <text x="300" y="410" text-anchor="middle" font-family="Inter, sans-serif" font-size="18" font-weight="700" fill="#ffffff" letter-spacing="2">GROWTH MARKETING</text>
</svg>
